<svg width="65" height="65" viewBox="0 0 65 65" fill="none" xmlns="http://www.w3.org/2000/svg">
<path d="M8.29836 20.3396C10.5527 15.8533 14.0097 12.082 18.2834 9.44686C22.5571 6.81168 27.4792 5.41634 32.5 5.41669C39.799 5.41669 45.9306 8.10065 50.6188 12.4719L42.854 20.2394C40.0454 17.5554 36.4759 16.1877 32.5 16.1877C25.4448 16.1877 19.4729 20.9544 17.3469 27.3542C16.8052 28.9792 16.4965 30.7125 16.4965 32.5C16.4965 34.2875 16.8052 36.0209 17.3469 37.6459C19.4756 44.0484 25.4448 48.8123 32.5 48.8123C36.1427 48.8123 39.2438 47.8509 41.6704 46.2259C43.0773 45.2996 44.2816 44.0977 45.2108 42.6928C46.1399 41.2879 46.7745 39.7092 47.0763 38.0521H32.5V27.5763H58.0071C58.3267 29.3475 58.5 31.1946 58.5 33.1148C58.5 41.3644 55.5479 48.3086 50.4238 53.0211C45.9442 57.1594 39.8125 59.5834 32.5 59.5834C28.943 59.5848 25.4205 58.8852 22.134 57.5247C18.8475 56.1641 15.8612 54.1692 13.346 51.654C10.8308 49.1388 8.83595 46.1526 7.47539 42.8661C6.11482 39.5795 5.41527 36.0571 5.41669 32.5C5.41669 28.1288 6.46211 23.9959 8.29836 20.3396Z" fill="#F191AC"/>
</svg>
