<svg width="45" height="55" viewBox="0 0 45 55" fill="none" xmlns="http://www.w3.org/2000/svg">
<path d="M8.95831 0.416687C6.80343 0.416687 4.7368 1.27271 3.21307 2.79644C1.68934 4.32018 0.833313 6.3868 0.833313 8.54169V46.4584C0.833313 48.6132 1.68934 50.6799 3.21307 52.2036C4.7368 53.7273 6.80343 54.5834 8.95831 54.5834H36.0416C38.1965 54.5834 40.2632 53.7273 41.7869 52.2036C43.3106 50.6799 44.1666 48.6132 44.1666 46.4584V8.54169C44.1666 6.3868 43.3106 4.32018 41.7869 2.79644C40.2632 1.27271 38.1965 0.416687 36.0416 0.416687H8.95831ZM19.7916 5.83335H25.2083C25.9266 5.83335 26.6155 6.1187 27.1234 6.62661C27.6313 7.13452 27.9166 7.82339 27.9166 8.54169C27.9166 9.25998 27.6313 9.94886 27.1234 10.4568C26.6155 10.9647 25.9266 11.25 25.2083 11.25H19.7916C19.0734 11.25 18.3845 10.9647 17.8766 10.4568C17.3687 9.94886 17.0833 9.25998 17.0833 8.54169C17.0833 7.82339 17.3687 7.13452 17.8766 6.62661C18.3845 6.1187 19.0734 5.83335 19.7916 5.83335ZM27.9166 22.0834C27.9166 23.5199 27.346 24.8977 26.3301 25.9135C25.3143 26.9293 23.9366 27.5 22.5 27.5C21.0634 27.5 19.6856 26.9293 18.6698 25.9135C17.654 24.8977 17.0833 23.5199 17.0833 22.0834C17.0833 20.6468 17.654 19.269 18.6698 18.2532C19.6856 17.2374 21.0634 16.6667 22.5 16.6667C23.9366 16.6667 25.3143 17.2374 26.3301 18.2532C27.346 19.269 27.9166 20.6468 27.9166 22.0834ZM11.6666 35.625C11.6666 34.9067 11.952 34.2179 12.4599 33.7099C12.9678 33.202 13.6567 32.9167 14.375 32.9167H30.625C31.3433 32.9167 32.0321 33.202 32.5401 33.7099C33.048 34.2179 33.3333 34.9067 33.3333 35.625C33.3333 41.0417 27.9166 43.75 22.5 43.75C17.0833 43.75 11.6666 41.0417 11.6666 35.625Z" fill="#F191AC"/>
</svg>
